<svg xmlns="http://www.w3.org/2000/svg" width="696" height="617" viewBox="0 0 696 617">
  <defs>
    <linearGradient id="linear-gradient" x1="0.133" y1="0.827" x2="0.932" y2="0.084" gradientUnits="objectBoundingBox">
      <stop offset="0" stop-color="#0047bf"/>
      <stop offset="1" stop-color="#d300ff"/>
    </linearGradient>
    <clipPath id="clip-path">
      <path d="M367.265,379.882a144.88,144.88,0,0,0-38.322-15.238,143.146,143.146,0,0,0-41.682-3.679,140.825,140.825,0,0,0-40.271,8.362,137.516,137.516,0,0,0-34.475,18.62c-2.548,1.868-4.974,3.846-7.333,5.839s-4.6,4.08-6.762,6.176l-1.594,1.594-.791.795-.771.81-1.53,1.613-1.483,1.637-.735.816-.716.829-1.419,1.651-1.373,1.67-.679.832-.66.843-1.31,1.677-1.262,1.694-.626.842-.6.853-1.2,1.695c-1.552,2.281-3.046,4.542-4.411,6.828a131.674,131.674,0,0,0-15.719,38.683c-.877,3.834-1.54,7.445-2.011,10.8-.127.836-.215,1.661-.321,2.464l-.15,1.192q-.059.591-.118,1.169-.113,1.155-.222,2.255-.082,1.1-.161,2.148a123.634,123.634,0,0,0-.254,12.929c.025,1.487.113,2.625.145,3.391s.061,1.161.061,1.161l.09-1.16c.067-.764.126-1.9.293-3.372a122.433,122.433,0,0,1,1.9-12.648l.429-2.07.5-2.163.261-1.118.3-1.137c.2-.765.393-1.549.621-2.341.875-3.177,1.966-6.566,3.28-10.117A124.662,124.662,0,0,1,177.3,444.063a121.416,121.416,0,0,1,8.26-11.659c1.523-1.932,3.162-3.822,4.842-5.712l1.293-1.4.648-.7.669-.689,1.342-1.385,1.383-1.362.694-.683.712-.67,1.431-1.342,1.47-1.317.738-.66.755-.646,1.517-1.292,1.556-1.262.781-.632.8-.616,1.6-1.232c2.169-1.611,4.39-3.186,6.691-4.68s4.656-2.939,7.094-4.276a118.524,118.524,0,0,1,31.567-12.1,117,117,0,0,1,34.118-2.565,114.35,114.35,0,0,1,32.708,7.248,111.363,111.363,0,0,1,22.693,11.86l29.962-23.174C370.869,382,369.089,380.916,367.265,379.882Z" transform="translate(-158.233 -360.718)" fill="#fff2ff"/>
    </clipPath>
    <clipPath id="clip-path-2">
      <path d="M737.631,546.844c0,.089-.008.159-.012.238q-.013.23-.025.449-.023.436-.043.827l-.213,4.183,52.434-.664s-.136-1.7-.39-4.9l-.132-1.522q-.036-.4-.074-.822-.019-.207-.04-.421c-.015-.133-.031-.267-.047-.4q-.193-1.626-.421-3.547c-.184-1.276-.371-2.646-.6-4.1l-.38-2.25q-.1-.578-.2-1.174l-.231-1.2q-.238-1.217-.49-2.5c-.178-.852-.377-1.723-.574-2.614q-.149-.668-.3-1.351t-.34-1.375c-.234-.926-.455-1.874-.718-2.833-1.014-3.846-2.282-7.953-3.822-12.262a150.927,150.927,0,0,0-13.143-27.536,147.625,147.625,0,0,0-9.831-14.226c-1.819-2.359-3.771-4.673-5.782-6.983l-1.544-1.714-.777-.859-.8-.846-1.606-1.7-1.654-1.67-.832-.837-.851-.823-1.716-1.646-1.761-1.618-.886-.809-.9-.794-1.822-1.587-1.867-1.554-.938-.777-.958-.759-1.926-1.518c-.611-.466-1.23-.928-1.85-1.388L708.9,471.681l.111.12,1.219,1.322,1.179,1.342.585.667.568.679,1.128,1.349,1.088,1.366.54.679.522.689,1.038,1.369,1,1.383.5.686.476.7.948,1.381c1.222,1.86,2.4,3.7,3.471,5.556a105.348,105.348,0,0,1,12.133,31.222c.651,3.076,1.138,5.968,1.469,8.653.092.669.149,1.331.224,1.973l.106.954q.039.473.077.936.076.923.149,1.8.051.881.1,1.718.024.418.048.824t.025.8q.027.791.052,1.535.016,1.488.029,2.788-.022,1.3-.041,2.4Z" transform="translate(-708.896 -438.956)" fill="#fff2ff"/>
    </clipPath>
    <filter id="distort">
      <feTurbulence baseFrequency=".005" type="fractalNoise"/>
      <feColorMatrix type="hueRotate" values="0">
        <animate attributeName="values" from="0" to="360" dur="3s" repeatCount="indefinite"/>
      </feColorMatrix>
      <feDisplacementMap in="SourceGraphic" xChannelSelector="R" yChannelSelector="B" scale="20">
        <animate attributeName="scale" values="45" dur="1s" repeatCount="indefinite"/>
      </feDisplacementMap>
      <feComponentTransfer result="main">
        <feFuncA type="gamma" amplitude="50" exponent="5"/>
      </feComponentTransfer>
      <feComposite operator="over" in="main"/>
    </filter>
  </defs>
  <g id="Group_26" data-name="Group 26" transform="translate(-8724 -85)">
    <rect id="Rectangle_405" data-name="Rectangle 405" width="696" height="617" transform="translate(8724 85)" fill="#fff" opacity="0"/>
    <path filter="url(#distort)" id="Path_24" data-name="Path 24" d="M850.171,544.352c-8.381-198.3-216.006-283.268-378.333-195.206C356.391,415.492,309.362,598.84,390.847,693.912,523.776,832.969,899.937,867.306,850.171,544.352Z" transform="translate(8523.324 -164.077)" fill="#fa03fa" opacity="0.25"/>
    <path filter="url(#distort)" id="Path_25" data-name="Path 25" d="M521.847,246.213c-273.805-107.884-664.9,194.942-293.734,417.754C275,689.293,333.054,685.085,379.94,663.95,502.1,616.74,583.281,495.33,582.734,364.543,586.581,311.482,569.275,268.842,521.847,246.213Z" transform="translate(8699.459 -105.691)" opacity="0.25" fill="url(#linear-gradient)"/>
    <path filter="url(#distort)" id="Path_26" data-name="Path 26" d="M529.07,478.741c-27.528-61.864-83.107-109.511-151.423-128.262a246.345,246.345,0,0,0-129.635,0h-2.518q-13.373,4.292-26.786,9.566C109.858,402.919,31.246,502.15,60.661,634.925,86.376,750.994,159.438,796.4,215.328,820.192c73.367,31.239,168.2,20.057,230.177-22.145,18.377-12.514,33.866-27.753,45.048-45.425q3.982-6.291,7.51-13a285.8,285.8,0,0,0,48.784-152.054c.083-2.841.137-5.69.137-8.551A287.576,287.576,0,0,0,529.07,478.741Z" transform="translate(8713.357 -181.647)" fill="#4e00ff" opacity="0.25"/>
    <g transform="translate(8715.311 -65.718)">
      <g transform="translate(406.971 391.869)">
        <path d="M832.545,445.166l51.919,1.573-51.919,1.573Z" transform="translate(-832.545 -445.166)" fill="#fff2ff"/>
      </g>
      <g transform="translate(436.869 432.195)">
        <path d="M913.6,554.486l51.919,1.573L913.6,557.633Z" transform="translate(-913.596 -554.486)" fill="#fff2ff"/>
      </g>
      <g transform="translate(423.227 410.927)">
        <path d="M876.614,496.83l58.027,1.573-58.027,1.573Z" transform="translate(-876.614 -496.83)" fill="#fff2ff"/>
      </g>
      <g transform="translate(158.233 360.718)">
        <g>
          <g clip-path="url(#clip-path)">
            <path id="Path_32" data-name="Path 32" d="M158.026,399.794,270.39,359.158h102.1V425l-212.5,76.849h-1.967Z" transform="translate(-158.102 -359.734)" fill="#fff2ff"/>
          </g>
        </g>
      </g>
      <g transform="translate(361.36 389.578)">
        <g transform="translate(0 0)">
          <g clip-path="url(#clip-path-2)">
            <path d="M708.9,445.845l19.049-6.889h51.489l10.337,28.584v84.922l-.218.079H708.9Z" transform="translate(-708.896 -438.956)" fill="#fff2ff"/>
            <path d="M910.457,467.54l-10.337-28.584h10.337Z" transform="translate(-829.581 -438.956)" fill="#fff2ff"/>
          </g>
        </g>
      </g>
      <g transform="translate(250.12 393.442)">
        <path d="M505.941,466.7,423.89,530.168a25.583,25.583,0,0,0-9.874,6.735,25.879,25.879,0,0,0-1.93,2.4l-.592.867a25.7,25.7,0,0,0,37.536,34.128l.807-.672a26.026,26.026,0,0,0,2.2-2.149A25.585,25.585,0,0,0,457.806,561L528.272,449.43Zm-72.11,97.706a11.4,11.4,0,1,1,11.4-11.4A11.4,11.4,0,0,1,433.831,564.409Z" transform="translate(-407.333 -449.43)" fill="#fff2ff"/>
      </g>
    </g>
  </g>
</svg>
